<svg xmlns="http://www.w3.org/2000/svg" viewBox="0 0 406.13 213.19"><defs><style>.cls-1{isolation:isolate;}.cls-2{fill:#00a14b;}</style></defs><g id="Layer_2" data-name="Layer 2"><g id="Layer_1-2" data-name="Layer 1"><g id="Layer_2-2" data-name="Layer 2"><g id="Layer_1-2-2" data-name="Layer 1-2"><g class="cls-1"><path class="cls-2" d="M111.52,135V92.11H210V180q-28.26,19.27-50,26.23t-51.54,7q-36.7,0-59.83-12.52T12.73,163.41Q0,138.66,0,106.59,0,72.84,13.92,47.88T54.7,10q21-10,56.39-10,34.18,0,51.12,6.19a66.36,66.36,0,0,1,28.13,19.19q11.17,13,16.8,33l-61.45,11q-3.8-11.67-12.87-17.86t-23.13-6.19q-21,0-33.4,14.56T63.84,105.89q0,33.46,12.59,47.81t35.09,14.35a66.52,66.52,0,0,0,20.39-3.1,109.72,109.72,0,0,0,22.21-10.54V135Z"/><path class="cls-2" d="M406.12,209.67H234.28a107.65,107.65,0,0,1,17.93-47.88q15-22.42,56.18-52.95,25.17-18.69,32.2-28.4t7-18.42a21.54,21.54,0,0,0-7-16.11q-7-6.67-17.5-6.68-11,0-17.93,6.89t-9.35,24.33L238.5,65.81q3.38-24.18,12.38-37.76T276.26,7.24Q292.64,0,321.61,0q30.22,0,47,6.89a57.37,57.37,0,0,1,26.44,21.16,55.93,55.93,0,0,1,9.63,32q0,18.84-11,36t-40.15,37.68q-17.29,12-23.13,16.74T316.69,163h89.43Z"/></g></g></g></g></g></svg>