<svg xmlns="http://www.w3.org/2000/svg" viewBox="0 0 412.73 213.19"><defs><style>.cls-1{isolation:isolate;}.cls-2{fill:#7f3f98;}</style></defs><g id="Layer_2" data-name="Layer 2"><g id="Layer_1-2" data-name="Layer 1"><g id="Layer_2-2" data-name="Layer 2"><g id="Layer_1-2-2" data-name="Layer 1-2"><g class="cls-1"><path class="cls-2" d="M111.52,135V92.11H210V180q-28.26,19.27-50,26.23t-51.54,7q-36.7,0-59.83-12.52T12.73,163.41Q0,138.66,0,106.59,0,72.84,13.92,47.88T54.7,10q21-10,56.39-10,34.18,0,51.12,6.19a66.36,66.36,0,0,1,28.13,19.19q11.17,13,16.8,33l-61.45,11q-3.8-11.67-12.87-17.86t-23.13-6.19q-21,0-33.4,14.56T63.84,105.89q0,33.46,12.59,47.81t35.09,14.35a66.52,66.52,0,0,0,20.39-3.1,109.72,109.72,0,0,0,22.21-10.54V135Z"/><path class="cls-2" d="M336.94,171.14H232.59V124L336.94,0h49.92V126.7h25.87v44.44H386.86v38.53H336.94Zm0-44.44V61.82L281.8,126.7Z"/></g></g></g></g></g></svg>