<svg xmlns="http://www.w3.org/2000/svg" viewBox="0 0 407.11 213.19"><defs><style>.cls-1{isolation:isolate;}.cls-2{fill:#f26522;}</style></defs><g id="Layer_2" data-name="Layer 2"><g id="Layer_1-2" data-name="Layer 1"><g id="Layer_2-2" data-name="Layer 2"><g id="Layer_1-2-2" data-name="Layer 1-2"><g class="cls-1"><path class="cls-2" d="M111.52,135V92.11H210V180q-28.26,19.27-50,26.23t-51.54,7q-36.7,0-59.83-12.52T12.73,163.41Q0,138.66,0,106.59,0,72.84,13.92,47.88T54.7,10q21-10,56.39-10,34.18,0,51.12,6.19a66.36,66.36,0,0,1,28.13,19.19q11.17,13,16.8,33l-61.45,11q-3.8-11.67-12.87-17.86t-23.13-6.19q-21,0-33.4,14.56T63.84,105.89q0,33.46,12.59,47.81t35.09,14.35a66.52,66.52,0,0,0,20.39-3.1,109.72,109.72,0,0,0,22.21-10.54V135Z"/><path class="cls-2" d="M294.05,63.14l-54.14-9.7q6.75-25.87,25.94-39.66T320.2,0q40.37,0,58.36,15.05t18,37.83a42.28,42.28,0,0,1-7.31,24.18q-7.32,10.83-22.08,19,12,3,18.28,6.89a44.57,44.57,0,0,1,16,16.66q5.7,10.34,5.7,24.68a68.71,68.71,0,0,1-9.42,34.52,63.1,63.1,0,0,1-27.14,25.46q-17.73,8.93-46.55,8.93-28.12,0-44.37-6.61a66.29,66.29,0,0,1-26.72-19.34q-10.47-12.72-16.1-32l57.24-7.59q3.38,17.29,10.47,24t18.07,6.68a24.84,24.84,0,0,0,19.2-8.44q7.66-8.43,7.66-22.5,0-14.34-7.38-22.21t-20-7.88q-6.75,0-18.56,3.38l2.95-40.93a53.17,53.17,0,0,0,7.46.71q11.24,0,18.77-7.17a22.77,22.77,0,0,0,7.52-17q0-9.42-5.62-15t-15.47-5.62q-10.12,0-16.46,6.12T294.05,63.14Z"/></g></g></g></g></g></svg>